<?xml version="1.0" encoding="UTF-8" standalone="no"?>
<svg
   width="24"
   height="24"
   viewBox="-4.2 -0.3 24 24"
   preserveAspectRatio="xMinYMid meet"
   overflow="visible"
   version="1.1"
   id="svg1980"
   sodipodi:docname="icon.svg"
   inkscape:version="1.2 (dc2aedaf03, 2022-05-15)"
   inkscape:export-filename="icon.png"
   inkscape:export-xdpi="547.66"
   inkscape:export-ydpi="547.66"
   xmlns:inkscape="http://www.inkscape.org/namespaces/inkscape"
   xmlns:sodipodi="http://sodipodi.sourceforge.net/DTD/sodipodi-0.dtd"
   xmlns="http://www.w3.org/2000/svg"
   xmlns:svg="http://www.w3.org/2000/svg">
  <defs
     id="defs1984" />
  <sodipodi:namedview
     id="namedview1982"
     pagecolor="#ffffff"
     bordercolor="#666666"
     borderopacity="1.0"
     inkscape:showpageshadow="2"
     inkscape:pageopacity="0.0"
     inkscape:pagecheckerboard="0"
     inkscape:deskcolor="#d1d1d1"
     showgrid="false"
     inkscape:zoom="14.981825"
     inkscape:cx="11.547325"
     inkscape:cy="12.949023"
     inkscape:window-width="2560"
     inkscape:window-height="1377"
     inkscape:window-x="-8"
     inkscape:window-y="-8"
     inkscape:window-maximized="1"
     inkscape:current-layer="svg1980" />
  <linearGradient
     id="a"
     gradientUnits="userSpaceOnUse"
     x1="7.824"
     x2="7.824"
     y2="23.326">
    <stop
       offset="0"
       stop-color="#76A1F0"
       id="stop1957" />
    <stop
       offset="1"
       stop-color="#6B90D5"
       id="stop1959" />
  </linearGradient>
  <linearGradient
     id="b"
     gradientUnits="userSpaceOnUse"
     x1="7.824"
     y1="1"
     x2="7.824"
     y2="22.326">
    <stop
       offset="0"
       stop-color="#BBE0F7"
       id="stop1964" />
    <stop
       offset="1"
       stop-color="#82B4FB"
       id="stop1966" />
  </linearGradient>
  <linearGradient
     id="c"
     gradientUnits="userSpaceOnUse"
     x1="7.824"
     y1="2.099"
     x2="7.824"
     y2="21.326">
    <stop
       offset="0"
       stop-color="#95BFF8"
       id="stop1971" />
    <stop
       offset=".557"
       stop-color="#84ADEF"
       id="stop1973" />
    <stop
       offset="1"
       stop-color="#7CA4EB"
       id="stop1975" />
  </linearGradient>
  <rect
     style="opacity:1;fill:#cbd900;fill-opacity:1;stroke:none;stroke-width:7.55906;stroke-linejoin:round"
     id="rect3284"
     width="34.436859"
     height="34.502949"
     x="31.426615"
     y="6.3758588" />
  <g
     transform="matrix(0.00527903,0,0,-0.00527903,-2.7139223,23.82125)"
     fill="#fff"
     stroke="none"
     id="g4"
     style="fill:#cbd900;fill-opacity:1;stroke:#000000;stroke-opacity:1;stroke-width:18.94287397;stroke-dasharray:none">
    <path
       d="m 2231,4531 c -8,-5 -48,-74 -90,-153 l -76,-143 -60,-13 c -153,-32 -325,-76 -380,-96 l -60,-21 -135,87 c -156,102 -173,105 -259,57 -201,-114 -482,-343 -498,-407 -3,-14 11,-78 36,-161 23,-75 43,-146 43,-157 1,-11 -28,-65 -64,-119 -36,-55 -94,-152 -128,-215 -34,-63 -65,-119 -70,-123 -4,-5 -70,-22 -146,-38 -177,-37 -189,-42 -207,-87 -23,-59 -55,-207 -71,-332 -19,-145 -30,-352 -19,-366 4,-6 71,-43 148,-83 77,-40 145,-78 151,-84 6,-7 22,-73 37,-147 14,-74 41,-182 60,-240 18,-59 30,-110 25,-115 -5,-6 -47,-68 -93,-140 -61,-93 -85,-139 -85,-161 0,-65 203,-365 350,-516 69,-72 78,-78 115,-78 22,0 90,15 150,34 177,54 158,55 262,-13 50,-34 140,-87 200,-120 157,-86 149,-76 178,-220 40,-196 40,-197 83,-214 52,-21 250,-64 351,-76 119,-15 354,-24 367,-14 7,4 46,71 88,148 42,77 83,145 92,151 8,6 38,15 67,18 66,9 228,49 334,83 l 82,27 138,-92 c 76,-51 149,-92 162,-92 77,0 530,330 576,421 23,43 18,91 -21,221 -19,66 -36,127 -36,136 -1,9 24,55 55,101 55,82 69,126 49,157 -9,15 -406,254 -421,254 -6,0 -50,23 -98,50 -104,60 -134,63 -171,18 -57,-67 -256,-255 -315,-296 -409,-287 -958,-268 -1349,47 -267,216 -405,461 -439,786 -37,344 94,685 360,938 346,329 831,410 1270,210 71,-32 123,-41 147,-25 7,4 59,84 116,177 247,402 264,435 240,471 -4,6 -55,37 -114,68 -59,32 -109,65 -112,74 -3,9 -19,78 -34,152 -16,75 -34,146 -41,157 -20,39 -182,79 -436,108 -145,17 -283,19 -304,6 z"
       id="path2"
       style="fill:#cbd900;fill-opacity:1;stroke:#000000;stroke-opacity:1;stroke-width:18.94287397;stroke-dasharray:none" />
  </g>
</svg>
